G04 #@! TF.GenerationSoftware,KiCad,Pcbnew,7.0.1*
G04 #@! TF.CreationDate,2023-04-01T18:06:36+02:00*
G04 #@! TF.ProjectId,PMOD SPI Memory,504d4f44-2053-4504-9920-4d656d6f7279,V1.0*
G04 #@! TF.SameCoordinates,Original*
G04 #@! TF.FileFunction,Legend,Top*
G04 #@! TF.FilePolarity,Positive*
%FSLAX46Y46*%
G04 Gerber Fmt 4.6, Leading zero omitted, Abs format (unit mm)*
G04 Created by KiCad (PCBNEW 7.0.1) date 2023-04-01 18:06:36*
%MOMM*%
%LPD*%
G01*
G04 APERTURE LIST*
G04 Aperture macros list*
%AMRoundRect*
0 Rectangle with rounded corners*
0 $1 Rounding radius*
0 $2 $3 $4 $5 $6 $7 $8 $9 X,Y pos of 4 corners*
0 Add a 4 corners polygon primitive as box body*
4,1,4,$2,$3,$4,$5,$6,$7,$8,$9,$2,$3,0*
0 Add four circle primitives for the rounded corners*
1,1,$1+$1,$2,$3*
1,1,$1+$1,$4,$5*
1,1,$1+$1,$6,$7*
1,1,$1+$1,$8,$9*
0 Add four rect primitives between the rounded corners*
20,1,$1+$1,$2,$3,$4,$5,0*
20,1,$1+$1,$4,$5,$6,$7,0*
20,1,$1+$1,$6,$7,$8,$9,0*
20,1,$1+$1,$8,$9,$2,$3,0*%
G04 Aperture macros list end*
%ADD10C,0.150000*%
%ADD11C,0.120000*%
%ADD12R,2.400000X1.600000*%
%ADD13RoundRect,0.150000X-0.650000X-0.150000X0.650000X-0.150000X0.650000X0.150000X-0.650000X0.150000X0*%
%ADD14RoundRect,0.150000X-0.675000X-0.150000X0.675000X-0.150000X0.675000X0.150000X-0.675000X0.150000X0*%
%ADD15O,2.400000X1.600000*%
%ADD16R,1.700000X1.700000*%
%ADD17O,1.700000X1.700000*%
%ADD18RoundRect,0.250000X-0.325000X-0.450000X0.325000X-0.450000X0.325000X0.450000X-0.325000X0.450000X0*%
%ADD19RoundRect,0.250000X-0.350000X-0.450000X0.350000X-0.450000X0.350000X0.450000X-0.350000X0.450000X0*%
%ADD20RoundRect,0.250000X-0.475000X0.337500X-0.475000X-0.337500X0.475000X-0.337500X0.475000X0.337500X0*%
%ADD21RoundRect,0.250000X0.350000X0.450000X-0.350000X0.450000X-0.350000X-0.450000X0.350000X-0.450000X0*%
G04 APERTURE END LIST*
D10*
X131445000Y-113030000D02*
X145415000Y-113030000D01*
X145415000Y-116840000D01*
X131445000Y-116840000D01*
X131445000Y-113030000D01*
G36*
X131445000Y-113030000D02*
G01*
X145415000Y-113030000D01*
X145415000Y-116840000D01*
X131445000Y-116840000D01*
X131445000Y-113030000D01*
G37*
X136525000Y-102870000D02*
X137795000Y-102870000D01*
X137795000Y-104140000D01*
X136525000Y-104140000D01*
X136525000Y-102870000D01*
X143510000Y-106680000D02*
X144780000Y-106680000D01*
X144780000Y-107950000D01*
X143510000Y-107950000D01*
X143510000Y-106680000D01*
X143510000Y-104775000D02*
X144780000Y-104775000D01*
X144780000Y-106045000D01*
X143510000Y-106045000D01*
X143510000Y-104775000D01*
X143510000Y-108585000D02*
X144780000Y-108585000D01*
X144780000Y-109855000D01*
X143510000Y-109855000D01*
X143510000Y-108585000D01*
X136525000Y-100965000D02*
X137795000Y-100965000D01*
X137795000Y-102235000D01*
X136525000Y-102235000D01*
X136525000Y-100965000D01*
X143510000Y-102870000D02*
X144780000Y-102870000D01*
X144780000Y-104140000D01*
X143510000Y-104140000D01*
X143510000Y-102870000D01*
X143510000Y-100965000D02*
X144780000Y-100965000D01*
X144780000Y-102235000D01*
X143510000Y-102235000D01*
X143510000Y-100965000D01*
X143510000Y-110490000D02*
X144780000Y-110490000D01*
X144780000Y-111760000D01*
X143510000Y-111760000D01*
X143510000Y-110490000D01*
X138970238Y-105872619D02*
X138970238Y-104872619D01*
X138970238Y-104872619D02*
X139303571Y-105586904D01*
X139303571Y-105586904D02*
X139636904Y-104872619D01*
X139636904Y-104872619D02*
X139636904Y-105872619D01*
X140684523Y-105872619D02*
X140351190Y-105396428D01*
X140113095Y-105872619D02*
X140113095Y-104872619D01*
X140113095Y-104872619D02*
X140494047Y-104872619D01*
X140494047Y-104872619D02*
X140589285Y-104920238D01*
X140589285Y-104920238D02*
X140636904Y-104967857D01*
X140636904Y-104967857D02*
X140684523Y-105063095D01*
X140684523Y-105063095D02*
X140684523Y-105205952D01*
X140684523Y-105205952D02*
X140636904Y-105301190D01*
X140636904Y-105301190D02*
X140589285Y-105348809D01*
X140589285Y-105348809D02*
X140494047Y-105396428D01*
X140494047Y-105396428D02*
X140113095Y-105396428D01*
X141065476Y-105586904D02*
X141541666Y-105586904D01*
X140970238Y-105872619D02*
X141303571Y-104872619D01*
X141303571Y-104872619D02*
X141636904Y-105872619D01*
X141970238Y-105872619D02*
X141970238Y-104872619D01*
X141970238Y-104872619D02*
X142303571Y-105586904D01*
X142303571Y-105586904D02*
X142636904Y-104872619D01*
X142636904Y-104872619D02*
X142636904Y-105872619D01*
X139113095Y-102015000D02*
X139255952Y-102062619D01*
X139255952Y-102062619D02*
X139494047Y-102062619D01*
X139494047Y-102062619D02*
X139589285Y-102015000D01*
X139589285Y-102015000D02*
X139636904Y-101967380D01*
X139636904Y-101967380D02*
X139684523Y-101872142D01*
X139684523Y-101872142D02*
X139684523Y-101776904D01*
X139684523Y-101776904D02*
X139636904Y-101681666D01*
X139636904Y-101681666D02*
X139589285Y-101634047D01*
X139589285Y-101634047D02*
X139494047Y-101586428D01*
X139494047Y-101586428D02*
X139303571Y-101538809D01*
X139303571Y-101538809D02*
X139208333Y-101491190D01*
X139208333Y-101491190D02*
X139160714Y-101443571D01*
X139160714Y-101443571D02*
X139113095Y-101348333D01*
X139113095Y-101348333D02*
X139113095Y-101253095D01*
X139113095Y-101253095D02*
X139160714Y-101157857D01*
X139160714Y-101157857D02*
X139208333Y-101110238D01*
X139208333Y-101110238D02*
X139303571Y-101062619D01*
X139303571Y-101062619D02*
X139541666Y-101062619D01*
X139541666Y-101062619D02*
X139684523Y-101110238D01*
X140684523Y-102062619D02*
X140351190Y-101586428D01*
X140113095Y-102062619D02*
X140113095Y-101062619D01*
X140113095Y-101062619D02*
X140494047Y-101062619D01*
X140494047Y-101062619D02*
X140589285Y-101110238D01*
X140589285Y-101110238D02*
X140636904Y-101157857D01*
X140636904Y-101157857D02*
X140684523Y-101253095D01*
X140684523Y-101253095D02*
X140684523Y-101395952D01*
X140684523Y-101395952D02*
X140636904Y-101491190D01*
X140636904Y-101491190D02*
X140589285Y-101538809D01*
X140589285Y-101538809D02*
X140494047Y-101586428D01*
X140494047Y-101586428D02*
X140113095Y-101586428D01*
X141065476Y-101776904D02*
X141541666Y-101776904D01*
X140970238Y-102062619D02*
X141303571Y-101062619D01*
X141303571Y-101062619D02*
X141636904Y-102062619D01*
X141970238Y-102062619D02*
X141970238Y-101062619D01*
X141970238Y-101062619D02*
X142303571Y-101776904D01*
X142303571Y-101776904D02*
X142636904Y-101062619D01*
X142636904Y-101062619D02*
X142636904Y-102062619D01*
X137113095Y-111063809D02*
X137446428Y-111063809D01*
X137589285Y-111587619D02*
X137113095Y-111587619D01*
X137113095Y-111587619D02*
X137113095Y-110587619D01*
X137113095Y-110587619D02*
X137589285Y-110587619D01*
X138017857Y-111063809D02*
X138351190Y-111063809D01*
X138494047Y-111587619D02*
X138017857Y-111587619D01*
X138017857Y-111587619D02*
X138017857Y-110587619D01*
X138017857Y-110587619D02*
X138494047Y-110587619D01*
X138922619Y-111587619D02*
X138922619Y-110587619D01*
X138922619Y-110587619D02*
X139303571Y-110587619D01*
X139303571Y-110587619D02*
X139398809Y-110635238D01*
X139398809Y-110635238D02*
X139446428Y-110682857D01*
X139446428Y-110682857D02*
X139494047Y-110778095D01*
X139494047Y-110778095D02*
X139494047Y-110920952D01*
X139494047Y-110920952D02*
X139446428Y-111016190D01*
X139446428Y-111016190D02*
X139398809Y-111063809D01*
X139398809Y-111063809D02*
X139303571Y-111111428D01*
X139303571Y-111111428D02*
X138922619Y-111111428D01*
X140494047Y-111587619D02*
X140160714Y-111111428D01*
X139922619Y-111587619D02*
X139922619Y-110587619D01*
X139922619Y-110587619D02*
X140303571Y-110587619D01*
X140303571Y-110587619D02*
X140398809Y-110635238D01*
X140398809Y-110635238D02*
X140446428Y-110682857D01*
X140446428Y-110682857D02*
X140494047Y-110778095D01*
X140494047Y-110778095D02*
X140494047Y-110920952D01*
X140494047Y-110920952D02*
X140446428Y-111016190D01*
X140446428Y-111016190D02*
X140398809Y-111063809D01*
X140398809Y-111063809D02*
X140303571Y-111111428D01*
X140303571Y-111111428D02*
X139922619Y-111111428D01*
X141113095Y-110587619D02*
X141303571Y-110587619D01*
X141303571Y-110587619D02*
X141398809Y-110635238D01*
X141398809Y-110635238D02*
X141494047Y-110730476D01*
X141494047Y-110730476D02*
X141541666Y-110920952D01*
X141541666Y-110920952D02*
X141541666Y-111254285D01*
X141541666Y-111254285D02*
X141494047Y-111444761D01*
X141494047Y-111444761D02*
X141398809Y-111540000D01*
X141398809Y-111540000D02*
X141303571Y-111587619D01*
X141303571Y-111587619D02*
X141113095Y-111587619D01*
X141113095Y-111587619D02*
X141017857Y-111540000D01*
X141017857Y-111540000D02*
X140922619Y-111444761D01*
X140922619Y-111444761D02*
X140875000Y-111254285D01*
X140875000Y-111254285D02*
X140875000Y-110920952D01*
X140875000Y-110920952D02*
X140922619Y-110730476D01*
X140922619Y-110730476D02*
X141017857Y-110635238D01*
X141017857Y-110635238D02*
X141113095Y-110587619D01*
X141970238Y-111587619D02*
X141970238Y-110587619D01*
X141970238Y-110587619D02*
X142303571Y-111301904D01*
X142303571Y-111301904D02*
X142636904Y-110587619D01*
X142636904Y-110587619D02*
X142636904Y-111587619D01*
X139589285Y-107253809D02*
X139255952Y-107253809D01*
X139255952Y-107777619D02*
X139255952Y-106777619D01*
X139255952Y-106777619D02*
X139732142Y-106777619D01*
X140684523Y-107777619D02*
X140351190Y-107301428D01*
X140113095Y-107777619D02*
X140113095Y-106777619D01*
X140113095Y-106777619D02*
X140494047Y-106777619D01*
X140494047Y-106777619D02*
X140589285Y-106825238D01*
X140589285Y-106825238D02*
X140636904Y-106872857D01*
X140636904Y-106872857D02*
X140684523Y-106968095D01*
X140684523Y-106968095D02*
X140684523Y-107110952D01*
X140684523Y-107110952D02*
X140636904Y-107206190D01*
X140636904Y-107206190D02*
X140589285Y-107253809D01*
X140589285Y-107253809D02*
X140494047Y-107301428D01*
X140494047Y-107301428D02*
X140113095Y-107301428D01*
X141065476Y-107491904D02*
X141541666Y-107491904D01*
X140970238Y-107777619D02*
X141303571Y-106777619D01*
X141303571Y-106777619D02*
X141636904Y-107777619D01*
X141970238Y-107777619D02*
X141970238Y-106777619D01*
X141970238Y-106777619D02*
X142303571Y-107491904D01*
X142303571Y-107491904D02*
X142636904Y-106777619D01*
X142636904Y-106777619D02*
X142636904Y-107777619D01*
X139446427Y-109158809D02*
X139113094Y-109158809D01*
X139113094Y-109682619D02*
X139113094Y-108682619D01*
X139113094Y-108682619D02*
X139589284Y-108682619D01*
X140113094Y-109682619D02*
X140017856Y-109635000D01*
X140017856Y-109635000D02*
X139970237Y-109539761D01*
X139970237Y-109539761D02*
X139970237Y-108682619D01*
X140922618Y-109682619D02*
X140922618Y-109158809D01*
X140922618Y-109158809D02*
X140874999Y-109063571D01*
X140874999Y-109063571D02*
X140779761Y-109015952D01*
X140779761Y-109015952D02*
X140589285Y-109015952D01*
X140589285Y-109015952D02*
X140494047Y-109063571D01*
X140922618Y-109635000D02*
X140827380Y-109682619D01*
X140827380Y-109682619D02*
X140589285Y-109682619D01*
X140589285Y-109682619D02*
X140494047Y-109635000D01*
X140494047Y-109635000D02*
X140446428Y-109539761D01*
X140446428Y-109539761D02*
X140446428Y-109444523D01*
X140446428Y-109444523D02*
X140494047Y-109349285D01*
X140494047Y-109349285D02*
X140589285Y-109301666D01*
X140589285Y-109301666D02*
X140827380Y-109301666D01*
X140827380Y-109301666D02*
X140922618Y-109254047D01*
X141351190Y-109635000D02*
X141446428Y-109682619D01*
X141446428Y-109682619D02*
X141636904Y-109682619D01*
X141636904Y-109682619D02*
X141732142Y-109635000D01*
X141732142Y-109635000D02*
X141779761Y-109539761D01*
X141779761Y-109539761D02*
X141779761Y-109492142D01*
X141779761Y-109492142D02*
X141732142Y-109396904D01*
X141732142Y-109396904D02*
X141636904Y-109349285D01*
X141636904Y-109349285D02*
X141494047Y-109349285D01*
X141494047Y-109349285D02*
X141398809Y-109301666D01*
X141398809Y-109301666D02*
X141351190Y-109206428D01*
X141351190Y-109206428D02*
X141351190Y-109158809D01*
X141351190Y-109158809D02*
X141398809Y-109063571D01*
X141398809Y-109063571D02*
X141494047Y-109015952D01*
X141494047Y-109015952D02*
X141636904Y-109015952D01*
X141636904Y-109015952D02*
X141732142Y-109063571D01*
X142208333Y-109682619D02*
X142208333Y-108682619D01*
X142636904Y-109682619D02*
X142636904Y-109158809D01*
X142636904Y-109158809D02*
X142589285Y-109063571D01*
X142589285Y-109063571D02*
X142494047Y-109015952D01*
X142494047Y-109015952D02*
X142351190Y-109015952D01*
X142351190Y-109015952D02*
X142255952Y-109063571D01*
X142255952Y-109063571D02*
X142208333Y-109111190D01*
X133270952Y-101062619D02*
X133889999Y-101062619D01*
X133889999Y-101062619D02*
X133556666Y-101443571D01*
X133556666Y-101443571D02*
X133699523Y-101443571D01*
X133699523Y-101443571D02*
X133794761Y-101491190D01*
X133794761Y-101491190D02*
X133842380Y-101538809D01*
X133842380Y-101538809D02*
X133889999Y-101634047D01*
X133889999Y-101634047D02*
X133889999Y-101872142D01*
X133889999Y-101872142D02*
X133842380Y-101967380D01*
X133842380Y-101967380D02*
X133794761Y-102015000D01*
X133794761Y-102015000D02*
X133699523Y-102062619D01*
X133699523Y-102062619D02*
X133413809Y-102062619D01*
X133413809Y-102062619D02*
X133318571Y-102015000D01*
X133318571Y-102015000D02*
X133270952Y-101967380D01*
X134175714Y-101062619D02*
X134509047Y-102062619D01*
X134509047Y-102062619D02*
X134842380Y-101062619D01*
X135080476Y-101062619D02*
X135699523Y-101062619D01*
X135699523Y-101062619D02*
X135366190Y-101443571D01*
X135366190Y-101443571D02*
X135509047Y-101443571D01*
X135509047Y-101443571D02*
X135604285Y-101491190D01*
X135604285Y-101491190D02*
X135651904Y-101538809D01*
X135651904Y-101538809D02*
X135699523Y-101634047D01*
X135699523Y-101634047D02*
X135699523Y-101872142D01*
X135699523Y-101872142D02*
X135651904Y-101967380D01*
X135651904Y-101967380D02*
X135604285Y-102015000D01*
X135604285Y-102015000D02*
X135509047Y-102062619D01*
X135509047Y-102062619D02*
X135223333Y-102062619D01*
X135223333Y-102062619D02*
X135128095Y-102015000D01*
X135128095Y-102015000D02*
X135080476Y-101967380D01*
X134794761Y-102967619D02*
X134318571Y-102967619D01*
X134318571Y-102967619D02*
X134270952Y-103443809D01*
X134270952Y-103443809D02*
X134318571Y-103396190D01*
X134318571Y-103396190D02*
X134413809Y-103348571D01*
X134413809Y-103348571D02*
X134651904Y-103348571D01*
X134651904Y-103348571D02*
X134747142Y-103396190D01*
X134747142Y-103396190D02*
X134794761Y-103443809D01*
X134794761Y-103443809D02*
X134842380Y-103539047D01*
X134842380Y-103539047D02*
X134842380Y-103777142D01*
X134842380Y-103777142D02*
X134794761Y-103872380D01*
X134794761Y-103872380D02*
X134747142Y-103920000D01*
X134747142Y-103920000D02*
X134651904Y-103967619D01*
X134651904Y-103967619D02*
X134413809Y-103967619D01*
X134413809Y-103967619D02*
X134318571Y-103920000D01*
X134318571Y-103920000D02*
X134270952Y-103872380D01*
X135128095Y-102967619D02*
X135461428Y-103967619D01*
X135461428Y-103967619D02*
X135794761Y-102967619D01*
X104378095Y-107142619D02*
X104378095Y-106142619D01*
X104378095Y-106142619D02*
X104711428Y-106856904D01*
X104711428Y-106856904D02*
X105044761Y-106142619D01*
X105044761Y-106142619D02*
X105044761Y-107142619D01*
X105520952Y-107142619D02*
X105520952Y-106142619D01*
X105949523Y-107095000D02*
X106092380Y-107142619D01*
X106092380Y-107142619D02*
X106330475Y-107142619D01*
X106330475Y-107142619D02*
X106425713Y-107095000D01*
X106425713Y-107095000D02*
X106473332Y-107047380D01*
X106473332Y-107047380D02*
X106520951Y-106952142D01*
X106520951Y-106952142D02*
X106520951Y-106856904D01*
X106520951Y-106856904D02*
X106473332Y-106761666D01*
X106473332Y-106761666D02*
X106425713Y-106714047D01*
X106425713Y-106714047D02*
X106330475Y-106666428D01*
X106330475Y-106666428D02*
X106139999Y-106618809D01*
X106139999Y-106618809D02*
X106044761Y-106571190D01*
X106044761Y-106571190D02*
X105997142Y-106523571D01*
X105997142Y-106523571D02*
X105949523Y-106428333D01*
X105949523Y-106428333D02*
X105949523Y-106333095D01*
X105949523Y-106333095D02*
X105997142Y-106237857D01*
X105997142Y-106237857D02*
X106044761Y-106190238D01*
X106044761Y-106190238D02*
X106139999Y-106142619D01*
X106139999Y-106142619D02*
X106378094Y-106142619D01*
X106378094Y-106142619D02*
X106520951Y-106190238D01*
X107139999Y-106142619D02*
X107330475Y-106142619D01*
X107330475Y-106142619D02*
X107425713Y-106190238D01*
X107425713Y-106190238D02*
X107520951Y-106285476D01*
X107520951Y-106285476D02*
X107568570Y-106475952D01*
X107568570Y-106475952D02*
X107568570Y-106809285D01*
X107568570Y-106809285D02*
X107520951Y-106999761D01*
X107520951Y-106999761D02*
X107425713Y-107095000D01*
X107425713Y-107095000D02*
X107330475Y-107142619D01*
X107330475Y-107142619D02*
X107139999Y-107142619D01*
X107139999Y-107142619D02*
X107044761Y-107095000D01*
X107044761Y-107095000D02*
X106949523Y-106999761D01*
X106949523Y-106999761D02*
X106901904Y-106809285D01*
X106901904Y-106809285D02*
X106901904Y-106475952D01*
X106901904Y-106475952D02*
X106949523Y-106285476D01*
X106949523Y-106285476D02*
X107044761Y-106190238D01*
X107044761Y-106190238D02*
X107139999Y-106142619D01*
X107204762Y-116397857D02*
X107252381Y-116350238D01*
X107252381Y-116350238D02*
X107347619Y-116302619D01*
X107347619Y-116302619D02*
X107585714Y-116302619D01*
X107585714Y-116302619D02*
X107680952Y-116350238D01*
X107680952Y-116350238D02*
X107728571Y-116397857D01*
X107728571Y-116397857D02*
X107776190Y-116493095D01*
X107776190Y-116493095D02*
X107776190Y-116588333D01*
X107776190Y-116588333D02*
X107728571Y-116731190D01*
X107728571Y-116731190D02*
X107157143Y-117302619D01*
X107157143Y-117302619D02*
X107776190Y-117302619D01*
X108395238Y-116302619D02*
X108490476Y-116302619D01*
X108490476Y-116302619D02*
X108585714Y-116350238D01*
X108585714Y-116350238D02*
X108633333Y-116397857D01*
X108633333Y-116397857D02*
X108680952Y-116493095D01*
X108680952Y-116493095D02*
X108728571Y-116683571D01*
X108728571Y-116683571D02*
X108728571Y-116921666D01*
X108728571Y-116921666D02*
X108680952Y-117112142D01*
X108680952Y-117112142D02*
X108633333Y-117207380D01*
X108633333Y-117207380D02*
X108585714Y-117255000D01*
X108585714Y-117255000D02*
X108490476Y-117302619D01*
X108490476Y-117302619D02*
X108395238Y-117302619D01*
X108395238Y-117302619D02*
X108300000Y-117255000D01*
X108300000Y-117255000D02*
X108252381Y-117207380D01*
X108252381Y-117207380D02*
X108204762Y-117112142D01*
X108204762Y-117112142D02*
X108157143Y-116921666D01*
X108157143Y-116921666D02*
X108157143Y-116683571D01*
X108157143Y-116683571D02*
X108204762Y-116493095D01*
X108204762Y-116493095D02*
X108252381Y-116397857D01*
X108252381Y-116397857D02*
X108300000Y-116350238D01*
X108300000Y-116350238D02*
X108395238Y-116302619D01*
X109109524Y-116397857D02*
X109157143Y-116350238D01*
X109157143Y-116350238D02*
X109252381Y-116302619D01*
X109252381Y-116302619D02*
X109490476Y-116302619D01*
X109490476Y-116302619D02*
X109585714Y-116350238D01*
X109585714Y-116350238D02*
X109633333Y-116397857D01*
X109633333Y-116397857D02*
X109680952Y-116493095D01*
X109680952Y-116493095D02*
X109680952Y-116588333D01*
X109680952Y-116588333D02*
X109633333Y-116731190D01*
X109633333Y-116731190D02*
X109061905Y-117302619D01*
X109061905Y-117302619D02*
X109680952Y-117302619D01*
X110014286Y-116302619D02*
X110633333Y-116302619D01*
X110633333Y-116302619D02*
X110300000Y-116683571D01*
X110300000Y-116683571D02*
X110442857Y-116683571D01*
X110442857Y-116683571D02*
X110538095Y-116731190D01*
X110538095Y-116731190D02*
X110585714Y-116778809D01*
X110585714Y-116778809D02*
X110633333Y-116874047D01*
X110633333Y-116874047D02*
X110633333Y-117112142D01*
X110633333Y-117112142D02*
X110585714Y-117207380D01*
X110585714Y-117207380D02*
X110538095Y-117255000D01*
X110538095Y-117255000D02*
X110442857Y-117302619D01*
X110442857Y-117302619D02*
X110157143Y-117302619D01*
X110157143Y-117302619D02*
X110061905Y-117255000D01*
X110061905Y-117255000D02*
X110014286Y-117207380D01*
X111061905Y-116921666D02*
X111823810Y-116921666D01*
X112490476Y-116302619D02*
X112585714Y-116302619D01*
X112585714Y-116302619D02*
X112680952Y-116350238D01*
X112680952Y-116350238D02*
X112728571Y-116397857D01*
X112728571Y-116397857D02*
X112776190Y-116493095D01*
X112776190Y-116493095D02*
X112823809Y-116683571D01*
X112823809Y-116683571D02*
X112823809Y-116921666D01*
X112823809Y-116921666D02*
X112776190Y-117112142D01*
X112776190Y-117112142D02*
X112728571Y-117207380D01*
X112728571Y-117207380D02*
X112680952Y-117255000D01*
X112680952Y-117255000D02*
X112585714Y-117302619D01*
X112585714Y-117302619D02*
X112490476Y-117302619D01*
X112490476Y-117302619D02*
X112395238Y-117255000D01*
X112395238Y-117255000D02*
X112347619Y-117207380D01*
X112347619Y-117207380D02*
X112300000Y-117112142D01*
X112300000Y-117112142D02*
X112252381Y-116921666D01*
X112252381Y-116921666D02*
X112252381Y-116683571D01*
X112252381Y-116683571D02*
X112300000Y-116493095D01*
X112300000Y-116493095D02*
X112347619Y-116397857D01*
X112347619Y-116397857D02*
X112395238Y-116350238D01*
X112395238Y-116350238D02*
X112490476Y-116302619D01*
X113680952Y-116635952D02*
X113680952Y-117302619D01*
X113442857Y-116255000D02*
X113204762Y-116969285D01*
X113204762Y-116969285D02*
X113823809Y-116969285D01*
X114204762Y-116921666D02*
X114966667Y-116921666D01*
X115633333Y-116302619D02*
X115728571Y-116302619D01*
X115728571Y-116302619D02*
X115823809Y-116350238D01*
X115823809Y-116350238D02*
X115871428Y-116397857D01*
X115871428Y-116397857D02*
X115919047Y-116493095D01*
X115919047Y-116493095D02*
X115966666Y-116683571D01*
X115966666Y-116683571D02*
X115966666Y-116921666D01*
X115966666Y-116921666D02*
X115919047Y-117112142D01*
X115919047Y-117112142D02*
X115871428Y-117207380D01*
X115871428Y-117207380D02*
X115823809Y-117255000D01*
X115823809Y-117255000D02*
X115728571Y-117302619D01*
X115728571Y-117302619D02*
X115633333Y-117302619D01*
X115633333Y-117302619D02*
X115538095Y-117255000D01*
X115538095Y-117255000D02*
X115490476Y-117207380D01*
X115490476Y-117207380D02*
X115442857Y-117112142D01*
X115442857Y-117112142D02*
X115395238Y-116921666D01*
X115395238Y-116921666D02*
X115395238Y-116683571D01*
X115395238Y-116683571D02*
X115442857Y-116493095D01*
X115442857Y-116493095D02*
X115490476Y-116397857D01*
X115490476Y-116397857D02*
X115538095Y-116350238D01*
X115538095Y-116350238D02*
X115633333Y-116302619D01*
X116919047Y-117302619D02*
X116347619Y-117302619D01*
X116633333Y-117302619D02*
X116633333Y-116302619D01*
X116633333Y-116302619D02*
X116538095Y-116445476D01*
X116538095Y-116445476D02*
X116442857Y-116540714D01*
X116442857Y-116540714D02*
X116347619Y-116588333D01*
X117395238Y-117255000D02*
X117395238Y-117302619D01*
X117395238Y-117302619D02*
X117347619Y-117397857D01*
X117347619Y-117397857D02*
X117300000Y-117445476D01*
X118442857Y-116302619D02*
X118776190Y-117302619D01*
X118776190Y-117302619D02*
X119109523Y-116302619D01*
X119966666Y-117302619D02*
X119395238Y-117302619D01*
X119680952Y-117302619D02*
X119680952Y-116302619D01*
X119680952Y-116302619D02*
X119585714Y-116445476D01*
X119585714Y-116445476D02*
X119490476Y-116540714D01*
X119490476Y-116540714D02*
X119395238Y-116588333D01*
X120395238Y-117207380D02*
X120442857Y-117255000D01*
X120442857Y-117255000D02*
X120395238Y-117302619D01*
X120395238Y-117302619D02*
X120347619Y-117255000D01*
X120347619Y-117255000D02*
X120395238Y-117207380D01*
X120395238Y-117207380D02*
X120395238Y-117302619D01*
X121061904Y-116302619D02*
X121157142Y-116302619D01*
X121157142Y-116302619D02*
X121252380Y-116350238D01*
X121252380Y-116350238D02*
X121299999Y-116397857D01*
X121299999Y-116397857D02*
X121347618Y-116493095D01*
X121347618Y-116493095D02*
X121395237Y-116683571D01*
X121395237Y-116683571D02*
X121395237Y-116921666D01*
X121395237Y-116921666D02*
X121347618Y-117112142D01*
X121347618Y-117112142D02*
X121299999Y-117207380D01*
X121299999Y-117207380D02*
X121252380Y-117255000D01*
X121252380Y-117255000D02*
X121157142Y-117302619D01*
X121157142Y-117302619D02*
X121061904Y-117302619D01*
X121061904Y-117302619D02*
X120966666Y-117255000D01*
X120966666Y-117255000D02*
X120919047Y-117207380D01*
X120919047Y-117207380D02*
X120871428Y-117112142D01*
X120871428Y-117112142D02*
X120823809Y-116921666D01*
X120823809Y-116921666D02*
X120823809Y-116683571D01*
X120823809Y-116683571D02*
X120871428Y-116493095D01*
X120871428Y-116493095D02*
X120919047Y-116397857D01*
X120919047Y-116397857D02*
X120966666Y-116350238D01*
X120966666Y-116350238D02*
X121061904Y-116302619D01*
X104949523Y-101967380D02*
X104901904Y-102015000D01*
X104901904Y-102015000D02*
X104759047Y-102062619D01*
X104759047Y-102062619D02*
X104663809Y-102062619D01*
X104663809Y-102062619D02*
X104520952Y-102015000D01*
X104520952Y-102015000D02*
X104425714Y-101919761D01*
X104425714Y-101919761D02*
X104378095Y-101824523D01*
X104378095Y-101824523D02*
X104330476Y-101634047D01*
X104330476Y-101634047D02*
X104330476Y-101491190D01*
X104330476Y-101491190D02*
X104378095Y-101300714D01*
X104378095Y-101300714D02*
X104425714Y-101205476D01*
X104425714Y-101205476D02*
X104520952Y-101110238D01*
X104520952Y-101110238D02*
X104663809Y-101062619D01*
X104663809Y-101062619D02*
X104759047Y-101062619D01*
X104759047Y-101062619D02*
X104901904Y-101110238D01*
X104901904Y-101110238D02*
X104949523Y-101157857D01*
X105330476Y-102015000D02*
X105473333Y-102062619D01*
X105473333Y-102062619D02*
X105711428Y-102062619D01*
X105711428Y-102062619D02*
X105806666Y-102015000D01*
X105806666Y-102015000D02*
X105854285Y-101967380D01*
X105854285Y-101967380D02*
X105901904Y-101872142D01*
X105901904Y-101872142D02*
X105901904Y-101776904D01*
X105901904Y-101776904D02*
X105854285Y-101681666D01*
X105854285Y-101681666D02*
X105806666Y-101634047D01*
X105806666Y-101634047D02*
X105711428Y-101586428D01*
X105711428Y-101586428D02*
X105520952Y-101538809D01*
X105520952Y-101538809D02*
X105425714Y-101491190D01*
X105425714Y-101491190D02*
X105378095Y-101443571D01*
X105378095Y-101443571D02*
X105330476Y-101348333D01*
X105330476Y-101348333D02*
X105330476Y-101253095D01*
X105330476Y-101253095D02*
X105378095Y-101157857D01*
X105378095Y-101157857D02*
X105425714Y-101110238D01*
X105425714Y-101110238D02*
X105520952Y-101062619D01*
X105520952Y-101062619D02*
X105759047Y-101062619D01*
X105759047Y-101062619D02*
X105901904Y-101110238D01*
X104240000Y-100615000D02*
X105992381Y-100615000D01*
X124762380Y-115937380D02*
X124714761Y-115985000D01*
X124714761Y-115985000D02*
X124571904Y-116032619D01*
X124571904Y-116032619D02*
X124476666Y-116032619D01*
X124476666Y-116032619D02*
X124333809Y-115985000D01*
X124333809Y-115985000D02*
X124238571Y-115889761D01*
X124238571Y-115889761D02*
X124190952Y-115794523D01*
X124190952Y-115794523D02*
X124143333Y-115604047D01*
X124143333Y-115604047D02*
X124143333Y-115461190D01*
X124143333Y-115461190D02*
X124190952Y-115270714D01*
X124190952Y-115270714D02*
X124238571Y-115175476D01*
X124238571Y-115175476D02*
X124333809Y-115080238D01*
X124333809Y-115080238D02*
X124476666Y-115032619D01*
X124476666Y-115032619D02*
X124571904Y-115032619D01*
X124571904Y-115032619D02*
X124714761Y-115080238D01*
X124714761Y-115080238D02*
X124762380Y-115127857D01*
X125619523Y-116032619D02*
X125619523Y-115508809D01*
X125619523Y-115508809D02*
X125571904Y-115413571D01*
X125571904Y-115413571D02*
X125476666Y-115365952D01*
X125476666Y-115365952D02*
X125286190Y-115365952D01*
X125286190Y-115365952D02*
X125190952Y-115413571D01*
X125619523Y-115985000D02*
X125524285Y-116032619D01*
X125524285Y-116032619D02*
X125286190Y-116032619D01*
X125286190Y-116032619D02*
X125190952Y-115985000D01*
X125190952Y-115985000D02*
X125143333Y-115889761D01*
X125143333Y-115889761D02*
X125143333Y-115794523D01*
X125143333Y-115794523D02*
X125190952Y-115699285D01*
X125190952Y-115699285D02*
X125286190Y-115651666D01*
X125286190Y-115651666D02*
X125524285Y-115651666D01*
X125524285Y-115651666D02*
X125619523Y-115604047D01*
X126095714Y-115365952D02*
X126095714Y-116365952D01*
X126095714Y-115413571D02*
X126190952Y-115365952D01*
X126190952Y-115365952D02*
X126381428Y-115365952D01*
X126381428Y-115365952D02*
X126476666Y-115413571D01*
X126476666Y-115413571D02*
X126524285Y-115461190D01*
X126524285Y-115461190D02*
X126571904Y-115556428D01*
X126571904Y-115556428D02*
X126571904Y-115842142D01*
X126571904Y-115842142D02*
X126524285Y-115937380D01*
X126524285Y-115937380D02*
X126476666Y-115985000D01*
X126476666Y-115985000D02*
X126381428Y-116032619D01*
X126381428Y-116032619D02*
X126190952Y-116032619D01*
X126190952Y-116032619D02*
X126095714Y-115985000D01*
X127429047Y-116032619D02*
X127429047Y-115508809D01*
X127429047Y-115508809D02*
X127381428Y-115413571D01*
X127381428Y-115413571D02*
X127286190Y-115365952D01*
X127286190Y-115365952D02*
X127095714Y-115365952D01*
X127095714Y-115365952D02*
X127000476Y-115413571D01*
X127429047Y-115985000D02*
X127333809Y-116032619D01*
X127333809Y-116032619D02*
X127095714Y-116032619D01*
X127095714Y-116032619D02*
X127000476Y-115985000D01*
X127000476Y-115985000D02*
X126952857Y-115889761D01*
X126952857Y-115889761D02*
X126952857Y-115794523D01*
X126952857Y-115794523D02*
X127000476Y-115699285D01*
X127000476Y-115699285D02*
X127095714Y-115651666D01*
X127095714Y-115651666D02*
X127333809Y-115651666D01*
X127333809Y-115651666D02*
X127429047Y-115604047D01*
X128333809Y-115985000D02*
X128238571Y-116032619D01*
X128238571Y-116032619D02*
X128048095Y-116032619D01*
X128048095Y-116032619D02*
X127952857Y-115985000D01*
X127952857Y-115985000D02*
X127905238Y-115937380D01*
X127905238Y-115937380D02*
X127857619Y-115842142D01*
X127857619Y-115842142D02*
X127857619Y-115556428D01*
X127857619Y-115556428D02*
X127905238Y-115461190D01*
X127905238Y-115461190D02*
X127952857Y-115413571D01*
X127952857Y-115413571D02*
X128048095Y-115365952D01*
X128048095Y-115365952D02*
X128238571Y-115365952D01*
X128238571Y-115365952D02*
X128333809Y-115413571D01*
X128762381Y-116032619D02*
X128762381Y-115365952D01*
X128762381Y-115032619D02*
X128714762Y-115080238D01*
X128714762Y-115080238D02*
X128762381Y-115127857D01*
X128762381Y-115127857D02*
X128810000Y-115080238D01*
X128810000Y-115080238D02*
X128762381Y-115032619D01*
X128762381Y-115032619D02*
X128762381Y-115127857D01*
X129095714Y-115365952D02*
X129476666Y-115365952D01*
X129238571Y-115032619D02*
X129238571Y-115889761D01*
X129238571Y-115889761D02*
X129286190Y-115985000D01*
X129286190Y-115985000D02*
X129381428Y-116032619D01*
X129381428Y-116032619D02*
X129476666Y-116032619D01*
X129714762Y-115365952D02*
X129952857Y-116032619D01*
X130190952Y-115365952D02*
X129952857Y-116032619D01*
X129952857Y-116032619D02*
X129857619Y-116270714D01*
X129857619Y-116270714D02*
X129810000Y-116318333D01*
X129810000Y-116318333D02*
X129714762Y-116365952D01*
X130571905Y-115937380D02*
X130619524Y-115985000D01*
X130619524Y-115985000D02*
X130571905Y-116032619D01*
X130571905Y-116032619D02*
X130524286Y-115985000D01*
X130524286Y-115985000D02*
X130571905Y-115937380D01*
X130571905Y-115937380D02*
X130571905Y-116032619D01*
X130571905Y-115413571D02*
X130619524Y-115461190D01*
X130619524Y-115461190D02*
X130571905Y-115508809D01*
X130571905Y-115508809D02*
X130524286Y-115461190D01*
X130524286Y-115461190D02*
X130571905Y-115413571D01*
X130571905Y-115413571D02*
X130571905Y-115508809D01*
X101134285Y-99522619D02*
X101134285Y-98522619D01*
X101562856Y-99522619D02*
X101562856Y-98998809D01*
X101562856Y-98998809D02*
X101515237Y-98903571D01*
X101515237Y-98903571D02*
X101419999Y-98855952D01*
X101419999Y-98855952D02*
X101277142Y-98855952D01*
X101277142Y-98855952D02*
X101181904Y-98903571D01*
X101181904Y-98903571D02*
X101134285Y-98951190D01*
X101896190Y-98855952D02*
X102277142Y-98855952D01*
X102039047Y-98522619D02*
X102039047Y-99379761D01*
X102039047Y-99379761D02*
X102086666Y-99475000D01*
X102086666Y-99475000D02*
X102181904Y-99522619D01*
X102181904Y-99522619D02*
X102277142Y-99522619D01*
X102467619Y-98855952D02*
X102848571Y-98855952D01*
X102610476Y-98522619D02*
X102610476Y-99379761D01*
X102610476Y-99379761D02*
X102658095Y-99475000D01*
X102658095Y-99475000D02*
X102753333Y-99522619D01*
X102753333Y-99522619D02*
X102848571Y-99522619D01*
X103181905Y-98855952D02*
X103181905Y-99855952D01*
X103181905Y-98903571D02*
X103277143Y-98855952D01*
X103277143Y-98855952D02*
X103467619Y-98855952D01*
X103467619Y-98855952D02*
X103562857Y-98903571D01*
X103562857Y-98903571D02*
X103610476Y-98951190D01*
X103610476Y-98951190D02*
X103658095Y-99046428D01*
X103658095Y-99046428D02*
X103658095Y-99332142D01*
X103658095Y-99332142D02*
X103610476Y-99427380D01*
X103610476Y-99427380D02*
X103562857Y-99475000D01*
X103562857Y-99475000D02*
X103467619Y-99522619D01*
X103467619Y-99522619D02*
X103277143Y-99522619D01*
X103277143Y-99522619D02*
X103181905Y-99475000D01*
X104039048Y-99475000D02*
X104134286Y-99522619D01*
X104134286Y-99522619D02*
X104324762Y-99522619D01*
X104324762Y-99522619D02*
X104420000Y-99475000D01*
X104420000Y-99475000D02*
X104467619Y-99379761D01*
X104467619Y-99379761D02*
X104467619Y-99332142D01*
X104467619Y-99332142D02*
X104420000Y-99236904D01*
X104420000Y-99236904D02*
X104324762Y-99189285D01*
X104324762Y-99189285D02*
X104181905Y-99189285D01*
X104181905Y-99189285D02*
X104086667Y-99141666D01*
X104086667Y-99141666D02*
X104039048Y-99046428D01*
X104039048Y-99046428D02*
X104039048Y-98998809D01*
X104039048Y-98998809D02*
X104086667Y-98903571D01*
X104086667Y-98903571D02*
X104181905Y-98855952D01*
X104181905Y-98855952D02*
X104324762Y-98855952D01*
X104324762Y-98855952D02*
X104420000Y-98903571D01*
X104896191Y-99427380D02*
X104943810Y-99475000D01*
X104943810Y-99475000D02*
X104896191Y-99522619D01*
X104896191Y-99522619D02*
X104848572Y-99475000D01*
X104848572Y-99475000D02*
X104896191Y-99427380D01*
X104896191Y-99427380D02*
X104896191Y-99522619D01*
X104896191Y-98903571D02*
X104943810Y-98951190D01*
X104943810Y-98951190D02*
X104896191Y-98998809D01*
X104896191Y-98998809D02*
X104848572Y-98951190D01*
X104848572Y-98951190D02*
X104896191Y-98903571D01*
X104896191Y-98903571D02*
X104896191Y-98998809D01*
X106086666Y-98475000D02*
X105229524Y-99760714D01*
X107134285Y-98475000D02*
X106277143Y-99760714D01*
X107896190Y-98855952D02*
X107896190Y-99665476D01*
X107896190Y-99665476D02*
X107848571Y-99760714D01*
X107848571Y-99760714D02*
X107800952Y-99808333D01*
X107800952Y-99808333D02*
X107705714Y-99855952D01*
X107705714Y-99855952D02*
X107562857Y-99855952D01*
X107562857Y-99855952D02*
X107467619Y-99808333D01*
X107896190Y-99475000D02*
X107800952Y-99522619D01*
X107800952Y-99522619D02*
X107610476Y-99522619D01*
X107610476Y-99522619D02*
X107515238Y-99475000D01*
X107515238Y-99475000D02*
X107467619Y-99427380D01*
X107467619Y-99427380D02*
X107420000Y-99332142D01*
X107420000Y-99332142D02*
X107420000Y-99046428D01*
X107420000Y-99046428D02*
X107467619Y-98951190D01*
X107467619Y-98951190D02*
X107515238Y-98903571D01*
X107515238Y-98903571D02*
X107610476Y-98855952D01*
X107610476Y-98855952D02*
X107800952Y-98855952D01*
X107800952Y-98855952D02*
X107896190Y-98903571D01*
X108372381Y-99522619D02*
X108372381Y-98855952D01*
X108372381Y-98522619D02*
X108324762Y-98570238D01*
X108324762Y-98570238D02*
X108372381Y-98617857D01*
X108372381Y-98617857D02*
X108420000Y-98570238D01*
X108420000Y-98570238D02*
X108372381Y-98522619D01*
X108372381Y-98522619D02*
X108372381Y-98617857D01*
X108705714Y-98855952D02*
X109086666Y-98855952D01*
X108848571Y-98522619D02*
X108848571Y-99379761D01*
X108848571Y-99379761D02*
X108896190Y-99475000D01*
X108896190Y-99475000D02*
X108991428Y-99522619D01*
X108991428Y-99522619D02*
X109086666Y-99522619D01*
X109420000Y-99522619D02*
X109420000Y-98522619D01*
X109848571Y-99522619D02*
X109848571Y-98998809D01*
X109848571Y-98998809D02*
X109800952Y-98903571D01*
X109800952Y-98903571D02*
X109705714Y-98855952D01*
X109705714Y-98855952D02*
X109562857Y-98855952D01*
X109562857Y-98855952D02*
X109467619Y-98903571D01*
X109467619Y-98903571D02*
X109420000Y-98951190D01*
X110753333Y-98855952D02*
X110753333Y-99522619D01*
X110324762Y-98855952D02*
X110324762Y-99379761D01*
X110324762Y-99379761D02*
X110372381Y-99475000D01*
X110372381Y-99475000D02*
X110467619Y-99522619D01*
X110467619Y-99522619D02*
X110610476Y-99522619D01*
X110610476Y-99522619D02*
X110705714Y-99475000D01*
X110705714Y-99475000D02*
X110753333Y-99427380D01*
X111229524Y-99522619D02*
X111229524Y-98522619D01*
X111229524Y-98903571D02*
X111324762Y-98855952D01*
X111324762Y-98855952D02*
X111515238Y-98855952D01*
X111515238Y-98855952D02*
X111610476Y-98903571D01*
X111610476Y-98903571D02*
X111658095Y-98951190D01*
X111658095Y-98951190D02*
X111705714Y-99046428D01*
X111705714Y-99046428D02*
X111705714Y-99332142D01*
X111705714Y-99332142D02*
X111658095Y-99427380D01*
X111658095Y-99427380D02*
X111610476Y-99475000D01*
X111610476Y-99475000D02*
X111515238Y-99522619D01*
X111515238Y-99522619D02*
X111324762Y-99522619D01*
X111324762Y-99522619D02*
X111229524Y-99475000D01*
X112134286Y-99427380D02*
X112181905Y-99475000D01*
X112181905Y-99475000D02*
X112134286Y-99522619D01*
X112134286Y-99522619D02*
X112086667Y-99475000D01*
X112086667Y-99475000D02*
X112134286Y-99427380D01*
X112134286Y-99427380D02*
X112134286Y-99522619D01*
X113039047Y-99475000D02*
X112943809Y-99522619D01*
X112943809Y-99522619D02*
X112753333Y-99522619D01*
X112753333Y-99522619D02*
X112658095Y-99475000D01*
X112658095Y-99475000D02*
X112610476Y-99427380D01*
X112610476Y-99427380D02*
X112562857Y-99332142D01*
X112562857Y-99332142D02*
X112562857Y-99046428D01*
X112562857Y-99046428D02*
X112610476Y-98951190D01*
X112610476Y-98951190D02*
X112658095Y-98903571D01*
X112658095Y-98903571D02*
X112753333Y-98855952D01*
X112753333Y-98855952D02*
X112943809Y-98855952D01*
X112943809Y-98855952D02*
X113039047Y-98903571D01*
X113610476Y-99522619D02*
X113515238Y-99475000D01*
X113515238Y-99475000D02*
X113467619Y-99427380D01*
X113467619Y-99427380D02*
X113420000Y-99332142D01*
X113420000Y-99332142D02*
X113420000Y-99046428D01*
X113420000Y-99046428D02*
X113467619Y-98951190D01*
X113467619Y-98951190D02*
X113515238Y-98903571D01*
X113515238Y-98903571D02*
X113610476Y-98855952D01*
X113610476Y-98855952D02*
X113753333Y-98855952D01*
X113753333Y-98855952D02*
X113848571Y-98903571D01*
X113848571Y-98903571D02*
X113896190Y-98951190D01*
X113896190Y-98951190D02*
X113943809Y-99046428D01*
X113943809Y-99046428D02*
X113943809Y-99332142D01*
X113943809Y-99332142D02*
X113896190Y-99427380D01*
X113896190Y-99427380D02*
X113848571Y-99475000D01*
X113848571Y-99475000D02*
X113753333Y-99522619D01*
X113753333Y-99522619D02*
X113610476Y-99522619D01*
X114372381Y-99522619D02*
X114372381Y-98855952D01*
X114372381Y-98951190D02*
X114420000Y-98903571D01*
X114420000Y-98903571D02*
X114515238Y-98855952D01*
X114515238Y-98855952D02*
X114658095Y-98855952D01*
X114658095Y-98855952D02*
X114753333Y-98903571D01*
X114753333Y-98903571D02*
X114800952Y-98998809D01*
X114800952Y-98998809D02*
X114800952Y-99522619D01*
X114800952Y-98998809D02*
X114848571Y-98903571D01*
X114848571Y-98903571D02*
X114943809Y-98855952D01*
X114943809Y-98855952D02*
X115086666Y-98855952D01*
X115086666Y-98855952D02*
X115181905Y-98903571D01*
X115181905Y-98903571D02*
X115229524Y-98998809D01*
X115229524Y-98998809D02*
X115229524Y-99522619D01*
X116419999Y-98475000D02*
X115562857Y-99760714D01*
X117181904Y-99522619D02*
X117181904Y-98998809D01*
X117181904Y-98998809D02*
X117134285Y-98903571D01*
X117134285Y-98903571D02*
X117039047Y-98855952D01*
X117039047Y-98855952D02*
X116848571Y-98855952D01*
X116848571Y-98855952D02*
X116753333Y-98903571D01*
X117181904Y-99475000D02*
X117086666Y-99522619D01*
X117086666Y-99522619D02*
X116848571Y-99522619D01*
X116848571Y-99522619D02*
X116753333Y-99475000D01*
X116753333Y-99475000D02*
X116705714Y-99379761D01*
X116705714Y-99379761D02*
X116705714Y-99284523D01*
X116705714Y-99284523D02*
X116753333Y-99189285D01*
X116753333Y-99189285D02*
X116848571Y-99141666D01*
X116848571Y-99141666D02*
X117086666Y-99141666D01*
X117086666Y-99141666D02*
X117181904Y-99094047D01*
X117515238Y-98855952D02*
X117896190Y-98855952D01*
X117658095Y-98522619D02*
X117658095Y-99379761D01*
X117658095Y-99379761D02*
X117705714Y-99475000D01*
X117705714Y-99475000D02*
X117800952Y-99522619D01*
X117800952Y-99522619D02*
X117896190Y-99522619D01*
X118372381Y-99522619D02*
X118277143Y-99475000D01*
X118277143Y-99475000D02*
X118229524Y-99427380D01*
X118229524Y-99427380D02*
X118181905Y-99332142D01*
X118181905Y-99332142D02*
X118181905Y-99046428D01*
X118181905Y-99046428D02*
X118229524Y-98951190D01*
X118229524Y-98951190D02*
X118277143Y-98903571D01*
X118277143Y-98903571D02*
X118372381Y-98855952D01*
X118372381Y-98855952D02*
X118515238Y-98855952D01*
X118515238Y-98855952D02*
X118610476Y-98903571D01*
X118610476Y-98903571D02*
X118658095Y-98951190D01*
X118658095Y-98951190D02*
X118705714Y-99046428D01*
X118705714Y-99046428D02*
X118705714Y-99332142D01*
X118705714Y-99332142D02*
X118658095Y-99427380D01*
X118658095Y-99427380D02*
X118610476Y-99475000D01*
X118610476Y-99475000D02*
X118515238Y-99522619D01*
X118515238Y-99522619D02*
X118372381Y-99522619D01*
X119277143Y-99522619D02*
X119181905Y-99475000D01*
X119181905Y-99475000D02*
X119134286Y-99427380D01*
X119134286Y-99427380D02*
X119086667Y-99332142D01*
X119086667Y-99332142D02*
X119086667Y-99046428D01*
X119086667Y-99046428D02*
X119134286Y-98951190D01*
X119134286Y-98951190D02*
X119181905Y-98903571D01*
X119181905Y-98903571D02*
X119277143Y-98855952D01*
X119277143Y-98855952D02*
X119420000Y-98855952D01*
X119420000Y-98855952D02*
X119515238Y-98903571D01*
X119515238Y-98903571D02*
X119562857Y-98951190D01*
X119562857Y-98951190D02*
X119610476Y-99046428D01*
X119610476Y-99046428D02*
X119610476Y-99332142D01*
X119610476Y-99332142D02*
X119562857Y-99427380D01*
X119562857Y-99427380D02*
X119515238Y-99475000D01*
X119515238Y-99475000D02*
X119420000Y-99522619D01*
X119420000Y-99522619D02*
X119277143Y-99522619D01*
X120039048Y-99522619D02*
X120039048Y-98855952D01*
X120039048Y-98951190D02*
X120086667Y-98903571D01*
X120086667Y-98903571D02*
X120181905Y-98855952D01*
X120181905Y-98855952D02*
X120324762Y-98855952D01*
X120324762Y-98855952D02*
X120420000Y-98903571D01*
X120420000Y-98903571D02*
X120467619Y-98998809D01*
X120467619Y-98998809D02*
X120467619Y-99522619D01*
X120467619Y-98998809D02*
X120515238Y-98903571D01*
X120515238Y-98903571D02*
X120610476Y-98855952D01*
X120610476Y-98855952D02*
X120753333Y-98855952D01*
X120753333Y-98855952D02*
X120848572Y-98903571D01*
X120848572Y-98903571D02*
X120896191Y-98998809D01*
X120896191Y-98998809D02*
X120896191Y-99522619D01*
X121372381Y-98855952D02*
X121372381Y-99522619D01*
X121372381Y-98951190D02*
X121420000Y-98903571D01*
X121420000Y-98903571D02*
X121515238Y-98855952D01*
X121515238Y-98855952D02*
X121658095Y-98855952D01*
X121658095Y-98855952D02*
X121753333Y-98903571D01*
X121753333Y-98903571D02*
X121800952Y-98998809D01*
X121800952Y-98998809D02*
X121800952Y-99522619D01*
X122658095Y-99475000D02*
X122562857Y-99522619D01*
X122562857Y-99522619D02*
X122372381Y-99522619D01*
X122372381Y-99522619D02*
X122277143Y-99475000D01*
X122277143Y-99475000D02*
X122229524Y-99379761D01*
X122229524Y-99379761D02*
X122229524Y-98998809D01*
X122229524Y-98998809D02*
X122277143Y-98903571D01*
X122277143Y-98903571D02*
X122372381Y-98855952D01*
X122372381Y-98855952D02*
X122562857Y-98855952D01*
X122562857Y-98855952D02*
X122658095Y-98903571D01*
X122658095Y-98903571D02*
X122705714Y-98998809D01*
X122705714Y-98998809D02*
X122705714Y-99094047D01*
X122705714Y-99094047D02*
X122229524Y-99189285D01*
X122991429Y-98855952D02*
X123372381Y-98855952D01*
X123134286Y-98522619D02*
X123134286Y-99379761D01*
X123134286Y-99379761D02*
X123181905Y-99475000D01*
X123181905Y-99475000D02*
X123277143Y-99522619D01*
X123277143Y-99522619D02*
X123372381Y-99522619D01*
X123705715Y-99522619D02*
X123705715Y-98855952D01*
X123705715Y-98951190D02*
X123753334Y-98903571D01*
X123753334Y-98903571D02*
X123848572Y-98855952D01*
X123848572Y-98855952D02*
X123991429Y-98855952D01*
X123991429Y-98855952D02*
X124086667Y-98903571D01*
X124086667Y-98903571D02*
X124134286Y-98998809D01*
X124134286Y-98998809D02*
X124134286Y-99522619D01*
X124134286Y-98998809D02*
X124181905Y-98903571D01*
X124181905Y-98903571D02*
X124277143Y-98855952D01*
X124277143Y-98855952D02*
X124420000Y-98855952D01*
X124420000Y-98855952D02*
X124515239Y-98903571D01*
X124515239Y-98903571D02*
X124562858Y-98998809D01*
X124562858Y-98998809D02*
X124562858Y-99522619D01*
X125467619Y-99522619D02*
X125467619Y-98998809D01*
X125467619Y-98998809D02*
X125420000Y-98903571D01*
X125420000Y-98903571D02*
X125324762Y-98855952D01*
X125324762Y-98855952D02*
X125134286Y-98855952D01*
X125134286Y-98855952D02*
X125039048Y-98903571D01*
X125467619Y-99475000D02*
X125372381Y-99522619D01*
X125372381Y-99522619D02*
X125134286Y-99522619D01*
X125134286Y-99522619D02*
X125039048Y-99475000D01*
X125039048Y-99475000D02*
X124991429Y-99379761D01*
X124991429Y-99379761D02*
X124991429Y-99284523D01*
X124991429Y-99284523D02*
X125039048Y-99189285D01*
X125039048Y-99189285D02*
X125134286Y-99141666D01*
X125134286Y-99141666D02*
X125372381Y-99141666D01*
X125372381Y-99141666D02*
X125467619Y-99094047D01*
X125943810Y-99522619D02*
X125943810Y-98855952D01*
X125943810Y-99046428D02*
X125991429Y-98951190D01*
X125991429Y-98951190D02*
X126039048Y-98903571D01*
X126039048Y-98903571D02*
X126134286Y-98855952D01*
X126134286Y-98855952D02*
X126229524Y-98855952D01*
X126991429Y-99475000D02*
X126896191Y-99522619D01*
X126896191Y-99522619D02*
X126705715Y-99522619D01*
X126705715Y-99522619D02*
X126610477Y-99475000D01*
X126610477Y-99475000D02*
X126562858Y-99427380D01*
X126562858Y-99427380D02*
X126515239Y-99332142D01*
X126515239Y-99332142D02*
X126515239Y-99046428D01*
X126515239Y-99046428D02*
X126562858Y-98951190D01*
X126562858Y-98951190D02*
X126610477Y-98903571D01*
X126610477Y-98903571D02*
X126705715Y-98855952D01*
X126705715Y-98855952D02*
X126896191Y-98855952D01*
X126896191Y-98855952D02*
X126991429Y-98903571D01*
X128134286Y-98475000D02*
X127277144Y-99760714D01*
X128467620Y-99522619D02*
X128467620Y-98522619D01*
X128467620Y-98522619D02*
X128848572Y-98522619D01*
X128848572Y-98522619D02*
X128943810Y-98570238D01*
X128943810Y-98570238D02*
X128991429Y-98617857D01*
X128991429Y-98617857D02*
X129039048Y-98713095D01*
X129039048Y-98713095D02*
X129039048Y-98855952D01*
X129039048Y-98855952D02*
X128991429Y-98951190D01*
X128991429Y-98951190D02*
X128943810Y-98998809D01*
X128943810Y-98998809D02*
X128848572Y-99046428D01*
X128848572Y-99046428D02*
X128467620Y-99046428D01*
X129467620Y-99522619D02*
X129467620Y-98522619D01*
X129467620Y-98522619D02*
X129800953Y-99236904D01*
X129800953Y-99236904D02*
X130134286Y-98522619D01*
X130134286Y-98522619D02*
X130134286Y-99522619D01*
X130800953Y-98522619D02*
X130991429Y-98522619D01*
X130991429Y-98522619D02*
X131086667Y-98570238D01*
X131086667Y-98570238D02*
X131181905Y-98665476D01*
X131181905Y-98665476D02*
X131229524Y-98855952D01*
X131229524Y-98855952D02*
X131229524Y-99189285D01*
X131229524Y-99189285D02*
X131181905Y-99379761D01*
X131181905Y-99379761D02*
X131086667Y-99475000D01*
X131086667Y-99475000D02*
X130991429Y-99522619D01*
X130991429Y-99522619D02*
X130800953Y-99522619D01*
X130800953Y-99522619D02*
X130705715Y-99475000D01*
X130705715Y-99475000D02*
X130610477Y-99379761D01*
X130610477Y-99379761D02*
X130562858Y-99189285D01*
X130562858Y-99189285D02*
X130562858Y-98855952D01*
X130562858Y-98855952D02*
X130610477Y-98665476D01*
X130610477Y-98665476D02*
X130705715Y-98570238D01*
X130705715Y-98570238D02*
X130800953Y-98522619D01*
X131658096Y-99522619D02*
X131658096Y-98522619D01*
X131658096Y-98522619D02*
X131896191Y-98522619D01*
X131896191Y-98522619D02*
X132039048Y-98570238D01*
X132039048Y-98570238D02*
X132134286Y-98665476D01*
X132134286Y-98665476D02*
X132181905Y-98760714D01*
X132181905Y-98760714D02*
X132229524Y-98951190D01*
X132229524Y-98951190D02*
X132229524Y-99094047D01*
X132229524Y-99094047D02*
X132181905Y-99284523D01*
X132181905Y-99284523D02*
X132134286Y-99379761D01*
X132134286Y-99379761D02*
X132039048Y-99475000D01*
X132039048Y-99475000D02*
X131896191Y-99522619D01*
X131896191Y-99522619D02*
X131658096Y-99522619D01*
X132658096Y-99141666D02*
X133420001Y-99141666D01*
X133848572Y-99475000D02*
X133991429Y-99522619D01*
X133991429Y-99522619D02*
X134229524Y-99522619D01*
X134229524Y-99522619D02*
X134324762Y-99475000D01*
X134324762Y-99475000D02*
X134372381Y-99427380D01*
X134372381Y-99427380D02*
X134420000Y-99332142D01*
X134420000Y-99332142D02*
X134420000Y-99236904D01*
X134420000Y-99236904D02*
X134372381Y-99141666D01*
X134372381Y-99141666D02*
X134324762Y-99094047D01*
X134324762Y-99094047D02*
X134229524Y-99046428D01*
X134229524Y-99046428D02*
X134039048Y-98998809D01*
X134039048Y-98998809D02*
X133943810Y-98951190D01*
X133943810Y-98951190D02*
X133896191Y-98903571D01*
X133896191Y-98903571D02*
X133848572Y-98808333D01*
X133848572Y-98808333D02*
X133848572Y-98713095D01*
X133848572Y-98713095D02*
X133896191Y-98617857D01*
X133896191Y-98617857D02*
X133943810Y-98570238D01*
X133943810Y-98570238D02*
X134039048Y-98522619D01*
X134039048Y-98522619D02*
X134277143Y-98522619D01*
X134277143Y-98522619D02*
X134420000Y-98570238D01*
X134848572Y-99522619D02*
X134848572Y-98522619D01*
X134848572Y-98522619D02*
X135229524Y-98522619D01*
X135229524Y-98522619D02*
X135324762Y-98570238D01*
X135324762Y-98570238D02*
X135372381Y-98617857D01*
X135372381Y-98617857D02*
X135420000Y-98713095D01*
X135420000Y-98713095D02*
X135420000Y-98855952D01*
X135420000Y-98855952D02*
X135372381Y-98951190D01*
X135372381Y-98951190D02*
X135324762Y-98998809D01*
X135324762Y-98998809D02*
X135229524Y-99046428D01*
X135229524Y-99046428D02*
X134848572Y-99046428D01*
X135848572Y-99522619D02*
X135848572Y-98522619D01*
X136324762Y-99141666D02*
X137086667Y-99141666D01*
X137562857Y-99522619D02*
X137562857Y-98522619D01*
X137562857Y-98522619D02*
X137896190Y-99236904D01*
X137896190Y-99236904D02*
X138229523Y-98522619D01*
X138229523Y-98522619D02*
X138229523Y-99522619D01*
X139086666Y-99475000D02*
X138991428Y-99522619D01*
X138991428Y-99522619D02*
X138800952Y-99522619D01*
X138800952Y-99522619D02*
X138705714Y-99475000D01*
X138705714Y-99475000D02*
X138658095Y-99379761D01*
X138658095Y-99379761D02*
X138658095Y-98998809D01*
X138658095Y-98998809D02*
X138705714Y-98903571D01*
X138705714Y-98903571D02*
X138800952Y-98855952D01*
X138800952Y-98855952D02*
X138991428Y-98855952D01*
X138991428Y-98855952D02*
X139086666Y-98903571D01*
X139086666Y-98903571D02*
X139134285Y-98998809D01*
X139134285Y-98998809D02*
X139134285Y-99094047D01*
X139134285Y-99094047D02*
X138658095Y-99189285D01*
X139562857Y-99522619D02*
X139562857Y-98855952D01*
X139562857Y-98951190D02*
X139610476Y-98903571D01*
X139610476Y-98903571D02*
X139705714Y-98855952D01*
X139705714Y-98855952D02*
X139848571Y-98855952D01*
X139848571Y-98855952D02*
X139943809Y-98903571D01*
X139943809Y-98903571D02*
X139991428Y-98998809D01*
X139991428Y-98998809D02*
X139991428Y-99522619D01*
X139991428Y-98998809D02*
X140039047Y-98903571D01*
X140039047Y-98903571D02*
X140134285Y-98855952D01*
X140134285Y-98855952D02*
X140277142Y-98855952D01*
X140277142Y-98855952D02*
X140372381Y-98903571D01*
X140372381Y-98903571D02*
X140420000Y-98998809D01*
X140420000Y-98998809D02*
X140420000Y-99522619D01*
X141039047Y-99522619D02*
X140943809Y-99475000D01*
X140943809Y-99475000D02*
X140896190Y-99427380D01*
X140896190Y-99427380D02*
X140848571Y-99332142D01*
X140848571Y-99332142D02*
X140848571Y-99046428D01*
X140848571Y-99046428D02*
X140896190Y-98951190D01*
X140896190Y-98951190D02*
X140943809Y-98903571D01*
X140943809Y-98903571D02*
X141039047Y-98855952D01*
X141039047Y-98855952D02*
X141181904Y-98855952D01*
X141181904Y-98855952D02*
X141277142Y-98903571D01*
X141277142Y-98903571D02*
X141324761Y-98951190D01*
X141324761Y-98951190D02*
X141372380Y-99046428D01*
X141372380Y-99046428D02*
X141372380Y-99332142D01*
X141372380Y-99332142D02*
X141324761Y-99427380D01*
X141324761Y-99427380D02*
X141277142Y-99475000D01*
X141277142Y-99475000D02*
X141181904Y-99522619D01*
X141181904Y-99522619D02*
X141039047Y-99522619D01*
X141800952Y-99522619D02*
X141800952Y-98855952D01*
X141800952Y-99046428D02*
X141848571Y-98951190D01*
X141848571Y-98951190D02*
X141896190Y-98903571D01*
X141896190Y-98903571D02*
X141991428Y-98855952D01*
X141991428Y-98855952D02*
X142086666Y-98855952D01*
X142324762Y-98855952D02*
X142562857Y-99522619D01*
X142800952Y-98855952D02*
X142562857Y-99522619D01*
X142562857Y-99522619D02*
X142467619Y-99760714D01*
X142467619Y-99760714D02*
X142420000Y-99808333D01*
X142420000Y-99808333D02*
X142324762Y-99855952D01*
X104235238Y-113762619D02*
X104568571Y-114762619D01*
X104568571Y-114762619D02*
X104901904Y-113762619D01*
X105806666Y-114667380D02*
X105759047Y-114715000D01*
X105759047Y-114715000D02*
X105616190Y-114762619D01*
X105616190Y-114762619D02*
X105520952Y-114762619D01*
X105520952Y-114762619D02*
X105378095Y-114715000D01*
X105378095Y-114715000D02*
X105282857Y-114619761D01*
X105282857Y-114619761D02*
X105235238Y-114524523D01*
X105235238Y-114524523D02*
X105187619Y-114334047D01*
X105187619Y-114334047D02*
X105187619Y-114191190D01*
X105187619Y-114191190D02*
X105235238Y-114000714D01*
X105235238Y-114000714D02*
X105282857Y-113905476D01*
X105282857Y-113905476D02*
X105378095Y-113810238D01*
X105378095Y-113810238D02*
X105520952Y-113762619D01*
X105520952Y-113762619D02*
X105616190Y-113762619D01*
X105616190Y-113762619D02*
X105759047Y-113810238D01*
X105759047Y-113810238D02*
X105806666Y-113857857D01*
X106806666Y-114667380D02*
X106759047Y-114715000D01*
X106759047Y-114715000D02*
X106616190Y-114762619D01*
X106616190Y-114762619D02*
X106520952Y-114762619D01*
X106520952Y-114762619D02*
X106378095Y-114715000D01*
X106378095Y-114715000D02*
X106282857Y-114619761D01*
X106282857Y-114619761D02*
X106235238Y-114524523D01*
X106235238Y-114524523D02*
X106187619Y-114334047D01*
X106187619Y-114334047D02*
X106187619Y-114191190D01*
X106187619Y-114191190D02*
X106235238Y-114000714D01*
X106235238Y-114000714D02*
X106282857Y-113905476D01*
X106282857Y-113905476D02*
X106378095Y-113810238D01*
X106378095Y-113810238D02*
X106520952Y-113762619D01*
X106520952Y-113762619D02*
X106616190Y-113762619D01*
X106616190Y-113762619D02*
X106759047Y-113810238D01*
X106759047Y-113810238D02*
X106806666Y-113857857D01*
X104330476Y-109635000D02*
X104473333Y-109682619D01*
X104473333Y-109682619D02*
X104711428Y-109682619D01*
X104711428Y-109682619D02*
X104806666Y-109635000D01*
X104806666Y-109635000D02*
X104854285Y-109587380D01*
X104854285Y-109587380D02*
X104901904Y-109492142D01*
X104901904Y-109492142D02*
X104901904Y-109396904D01*
X104901904Y-109396904D02*
X104854285Y-109301666D01*
X104854285Y-109301666D02*
X104806666Y-109254047D01*
X104806666Y-109254047D02*
X104711428Y-109206428D01*
X104711428Y-109206428D02*
X104520952Y-109158809D01*
X104520952Y-109158809D02*
X104425714Y-109111190D01*
X104425714Y-109111190D02*
X104378095Y-109063571D01*
X104378095Y-109063571D02*
X104330476Y-108968333D01*
X104330476Y-108968333D02*
X104330476Y-108873095D01*
X104330476Y-108873095D02*
X104378095Y-108777857D01*
X104378095Y-108777857D02*
X104425714Y-108730238D01*
X104425714Y-108730238D02*
X104520952Y-108682619D01*
X104520952Y-108682619D02*
X104759047Y-108682619D01*
X104759047Y-108682619D02*
X104901904Y-108730238D01*
X105901904Y-109587380D02*
X105854285Y-109635000D01*
X105854285Y-109635000D02*
X105711428Y-109682619D01*
X105711428Y-109682619D02*
X105616190Y-109682619D01*
X105616190Y-109682619D02*
X105473333Y-109635000D01*
X105473333Y-109635000D02*
X105378095Y-109539761D01*
X105378095Y-109539761D02*
X105330476Y-109444523D01*
X105330476Y-109444523D02*
X105282857Y-109254047D01*
X105282857Y-109254047D02*
X105282857Y-109111190D01*
X105282857Y-109111190D02*
X105330476Y-108920714D01*
X105330476Y-108920714D02*
X105378095Y-108825476D01*
X105378095Y-108825476D02*
X105473333Y-108730238D01*
X105473333Y-108730238D02*
X105616190Y-108682619D01*
X105616190Y-108682619D02*
X105711428Y-108682619D01*
X105711428Y-108682619D02*
X105854285Y-108730238D01*
X105854285Y-108730238D02*
X105901904Y-108777857D01*
X106330476Y-109682619D02*
X106330476Y-108682619D01*
X106901904Y-109682619D02*
X106473333Y-109111190D01*
X106901904Y-108682619D02*
X106330476Y-109254047D01*
X104901904Y-111270238D02*
X104806666Y-111222619D01*
X104806666Y-111222619D02*
X104663809Y-111222619D01*
X104663809Y-111222619D02*
X104520952Y-111270238D01*
X104520952Y-111270238D02*
X104425714Y-111365476D01*
X104425714Y-111365476D02*
X104378095Y-111460714D01*
X104378095Y-111460714D02*
X104330476Y-111651190D01*
X104330476Y-111651190D02*
X104330476Y-111794047D01*
X104330476Y-111794047D02*
X104378095Y-111984523D01*
X104378095Y-111984523D02*
X104425714Y-112079761D01*
X104425714Y-112079761D02*
X104520952Y-112175000D01*
X104520952Y-112175000D02*
X104663809Y-112222619D01*
X104663809Y-112222619D02*
X104759047Y-112222619D01*
X104759047Y-112222619D02*
X104901904Y-112175000D01*
X104901904Y-112175000D02*
X104949523Y-112127380D01*
X104949523Y-112127380D02*
X104949523Y-111794047D01*
X104949523Y-111794047D02*
X104759047Y-111794047D01*
X105378095Y-112222619D02*
X105378095Y-111222619D01*
X105378095Y-111222619D02*
X105949523Y-112222619D01*
X105949523Y-112222619D02*
X105949523Y-111222619D01*
X106425714Y-112222619D02*
X106425714Y-111222619D01*
X106425714Y-111222619D02*
X106663809Y-111222619D01*
X106663809Y-111222619D02*
X106806666Y-111270238D01*
X106806666Y-111270238D02*
X106901904Y-111365476D01*
X106901904Y-111365476D02*
X106949523Y-111460714D01*
X106949523Y-111460714D02*
X106997142Y-111651190D01*
X106997142Y-111651190D02*
X106997142Y-111794047D01*
X106997142Y-111794047D02*
X106949523Y-111984523D01*
X106949523Y-111984523D02*
X106901904Y-112079761D01*
X106901904Y-112079761D02*
X106806666Y-112175000D01*
X106806666Y-112175000D02*
X106663809Y-112222619D01*
X106663809Y-112222619D02*
X106425714Y-112222619D01*
X104378095Y-104602619D02*
X104378095Y-103602619D01*
X104378095Y-103602619D02*
X104711428Y-104316904D01*
X104711428Y-104316904D02*
X105044761Y-103602619D01*
X105044761Y-103602619D02*
X105044761Y-104602619D01*
X105711428Y-103602619D02*
X105901904Y-103602619D01*
X105901904Y-103602619D02*
X105997142Y-103650238D01*
X105997142Y-103650238D02*
X106092380Y-103745476D01*
X106092380Y-103745476D02*
X106139999Y-103935952D01*
X106139999Y-103935952D02*
X106139999Y-104269285D01*
X106139999Y-104269285D02*
X106092380Y-104459761D01*
X106092380Y-104459761D02*
X105997142Y-104555000D01*
X105997142Y-104555000D02*
X105901904Y-104602619D01*
X105901904Y-104602619D02*
X105711428Y-104602619D01*
X105711428Y-104602619D02*
X105616190Y-104555000D01*
X105616190Y-104555000D02*
X105520952Y-104459761D01*
X105520952Y-104459761D02*
X105473333Y-104269285D01*
X105473333Y-104269285D02*
X105473333Y-103935952D01*
X105473333Y-103935952D02*
X105520952Y-103745476D01*
X105520952Y-103745476D02*
X105616190Y-103650238D01*
X105616190Y-103650238D02*
X105711428Y-103602619D01*
X106520952Y-104555000D02*
X106663809Y-104602619D01*
X106663809Y-104602619D02*
X106901904Y-104602619D01*
X106901904Y-104602619D02*
X106997142Y-104555000D01*
X106997142Y-104555000D02*
X107044761Y-104507380D01*
X107044761Y-104507380D02*
X107092380Y-104412142D01*
X107092380Y-104412142D02*
X107092380Y-104316904D01*
X107092380Y-104316904D02*
X107044761Y-104221666D01*
X107044761Y-104221666D02*
X106997142Y-104174047D01*
X106997142Y-104174047D02*
X106901904Y-104126428D01*
X106901904Y-104126428D02*
X106711428Y-104078809D01*
X106711428Y-104078809D02*
X106616190Y-104031190D01*
X106616190Y-104031190D02*
X106568571Y-103983571D01*
X106568571Y-103983571D02*
X106520952Y-103888333D01*
X106520952Y-103888333D02*
X106520952Y-103793095D01*
X106520952Y-103793095D02*
X106568571Y-103697857D01*
X106568571Y-103697857D02*
X106616190Y-103650238D01*
X106616190Y-103650238D02*
X106711428Y-103602619D01*
X106711428Y-103602619D02*
X106949523Y-103602619D01*
X106949523Y-103602619D02*
X107092380Y-103650238D01*
X107520952Y-104602619D02*
X107520952Y-103602619D01*
X139113095Y-103967619D02*
X139113095Y-102967619D01*
X139113095Y-102967619D02*
X139351190Y-102967619D01*
X139351190Y-102967619D02*
X139494047Y-103015238D01*
X139494047Y-103015238D02*
X139589285Y-103110476D01*
X139589285Y-103110476D02*
X139636904Y-103205714D01*
X139636904Y-103205714D02*
X139684523Y-103396190D01*
X139684523Y-103396190D02*
X139684523Y-103539047D01*
X139684523Y-103539047D02*
X139636904Y-103729523D01*
X139636904Y-103729523D02*
X139589285Y-103824761D01*
X139589285Y-103824761D02*
X139494047Y-103920000D01*
X139494047Y-103920000D02*
X139351190Y-103967619D01*
X139351190Y-103967619D02*
X139113095Y-103967619D01*
X140684523Y-103967619D02*
X140351190Y-103491428D01*
X140113095Y-103967619D02*
X140113095Y-102967619D01*
X140113095Y-102967619D02*
X140494047Y-102967619D01*
X140494047Y-102967619D02*
X140589285Y-103015238D01*
X140589285Y-103015238D02*
X140636904Y-103062857D01*
X140636904Y-103062857D02*
X140684523Y-103158095D01*
X140684523Y-103158095D02*
X140684523Y-103300952D01*
X140684523Y-103300952D02*
X140636904Y-103396190D01*
X140636904Y-103396190D02*
X140589285Y-103443809D01*
X140589285Y-103443809D02*
X140494047Y-103491428D01*
X140494047Y-103491428D02*
X140113095Y-103491428D01*
X141065476Y-103681904D02*
X141541666Y-103681904D01*
X140970238Y-103967619D02*
X141303571Y-102967619D01*
X141303571Y-102967619D02*
X141636904Y-103967619D01*
X141970238Y-103967619D02*
X141970238Y-102967619D01*
X141970238Y-102967619D02*
X142303571Y-103681904D01*
X142303571Y-103681904D02*
X142636904Y-102967619D01*
X142636904Y-102967619D02*
X142636904Y-103967619D01*
X131318095Y-103602619D02*
X131318095Y-104412142D01*
X131318095Y-104412142D02*
X131365714Y-104507380D01*
X131365714Y-104507380D02*
X131413333Y-104555000D01*
X131413333Y-104555000D02*
X131508571Y-104602619D01*
X131508571Y-104602619D02*
X131699047Y-104602619D01*
X131699047Y-104602619D02*
X131794285Y-104555000D01*
X131794285Y-104555000D02*
X131841904Y-104507380D01*
X131841904Y-104507380D02*
X131889523Y-104412142D01*
X131889523Y-104412142D02*
X131889523Y-103602619D01*
X132889523Y-104602619D02*
X132318095Y-104602619D01*
X132603809Y-104602619D02*
X132603809Y-103602619D01*
X132603809Y-103602619D02*
X132508571Y-103745476D01*
X132508571Y-103745476D02*
X132413333Y-103840714D01*
X132413333Y-103840714D02*
X132318095Y-103888333D01*
X101266666Y-116302619D02*
X101266666Y-117016904D01*
X101266666Y-117016904D02*
X101219047Y-117159761D01*
X101219047Y-117159761D02*
X101123809Y-117255000D01*
X101123809Y-117255000D02*
X100980952Y-117302619D01*
X100980952Y-117302619D02*
X100885714Y-117302619D01*
X102266666Y-117302619D02*
X101695238Y-117302619D01*
X101980952Y-117302619D02*
X101980952Y-116302619D01*
X101980952Y-116302619D02*
X101885714Y-116445476D01*
X101885714Y-116445476D02*
X101790476Y-116540714D01*
X101790476Y-116540714D02*
X101695238Y-116588333D01*
X114831905Y-103967619D02*
X114831905Y-102967619D01*
X114831905Y-102967619D02*
X115070000Y-102967619D01*
X115070000Y-102967619D02*
X115212857Y-103015238D01*
X115212857Y-103015238D02*
X115308095Y-103110476D01*
X115308095Y-103110476D02*
X115355714Y-103205714D01*
X115355714Y-103205714D02*
X115403333Y-103396190D01*
X115403333Y-103396190D02*
X115403333Y-103539047D01*
X115403333Y-103539047D02*
X115355714Y-103729523D01*
X115355714Y-103729523D02*
X115308095Y-103824761D01*
X115308095Y-103824761D02*
X115212857Y-103920000D01*
X115212857Y-103920000D02*
X115070000Y-103967619D01*
X115070000Y-103967619D02*
X114831905Y-103967619D01*
X116355714Y-103967619D02*
X115784286Y-103967619D01*
X116070000Y-103967619D02*
X116070000Y-102967619D01*
X116070000Y-102967619D02*
X115974762Y-103110476D01*
X115974762Y-103110476D02*
X115879524Y-103205714D01*
X115879524Y-103205714D02*
X115784286Y-103253333D01*
X110323333Y-109047619D02*
X109990000Y-108571428D01*
X109751905Y-109047619D02*
X109751905Y-108047619D01*
X109751905Y-108047619D02*
X110132857Y-108047619D01*
X110132857Y-108047619D02*
X110228095Y-108095238D01*
X110228095Y-108095238D02*
X110275714Y-108142857D01*
X110275714Y-108142857D02*
X110323333Y-108238095D01*
X110323333Y-108238095D02*
X110323333Y-108380952D01*
X110323333Y-108380952D02*
X110275714Y-108476190D01*
X110275714Y-108476190D02*
X110228095Y-108523809D01*
X110228095Y-108523809D02*
X110132857Y-108571428D01*
X110132857Y-108571428D02*
X109751905Y-108571428D01*
X110704286Y-108142857D02*
X110751905Y-108095238D01*
X110751905Y-108095238D02*
X110847143Y-108047619D01*
X110847143Y-108047619D02*
X111085238Y-108047619D01*
X111085238Y-108047619D02*
X111180476Y-108095238D01*
X111180476Y-108095238D02*
X111228095Y-108142857D01*
X111228095Y-108142857D02*
X111275714Y-108238095D01*
X111275714Y-108238095D02*
X111275714Y-108333333D01*
X111275714Y-108333333D02*
X111228095Y-108476190D01*
X111228095Y-108476190D02*
X110656667Y-109047619D01*
X110656667Y-109047619D02*
X111275714Y-109047619D01*
X116699380Y-110424166D02*
X116747000Y-110471785D01*
X116747000Y-110471785D02*
X116794619Y-110614642D01*
X116794619Y-110614642D02*
X116794619Y-110709880D01*
X116794619Y-110709880D02*
X116747000Y-110852737D01*
X116747000Y-110852737D02*
X116651761Y-110947975D01*
X116651761Y-110947975D02*
X116556523Y-110995594D01*
X116556523Y-110995594D02*
X116366047Y-111043213D01*
X116366047Y-111043213D02*
X116223190Y-111043213D01*
X116223190Y-111043213D02*
X116032714Y-110995594D01*
X116032714Y-110995594D02*
X115937476Y-110947975D01*
X115937476Y-110947975D02*
X115842238Y-110852737D01*
X115842238Y-110852737D02*
X115794619Y-110709880D01*
X115794619Y-110709880D02*
X115794619Y-110614642D01*
X115794619Y-110614642D02*
X115842238Y-110471785D01*
X115842238Y-110471785D02*
X115889857Y-110424166D01*
X116794619Y-109471785D02*
X116794619Y-110043213D01*
X116794619Y-109757499D02*
X115794619Y-109757499D01*
X115794619Y-109757499D02*
X115937476Y-109852737D01*
X115937476Y-109852737D02*
X116032714Y-109947975D01*
X116032714Y-109947975D02*
X116080333Y-110043213D01*
X110323333Y-103967619D02*
X109990000Y-103491428D01*
X109751905Y-103967619D02*
X109751905Y-102967619D01*
X109751905Y-102967619D02*
X110132857Y-102967619D01*
X110132857Y-102967619D02*
X110228095Y-103015238D01*
X110228095Y-103015238D02*
X110275714Y-103062857D01*
X110275714Y-103062857D02*
X110323333Y-103158095D01*
X110323333Y-103158095D02*
X110323333Y-103300952D01*
X110323333Y-103300952D02*
X110275714Y-103396190D01*
X110275714Y-103396190D02*
X110228095Y-103443809D01*
X110228095Y-103443809D02*
X110132857Y-103491428D01*
X110132857Y-103491428D02*
X109751905Y-103491428D01*
X111275714Y-103967619D02*
X110704286Y-103967619D01*
X110990000Y-103967619D02*
X110990000Y-102967619D01*
X110990000Y-102967619D02*
X110894762Y-103110476D01*
X110894762Y-103110476D02*
X110799524Y-103205714D01*
X110799524Y-103205714D02*
X110704286Y-103253333D01*
D11*
X122301000Y-102870000D02*
X122301000Y-113150000D01*
X122301000Y-113150000D02*
X126801000Y-113150000D01*
X123551000Y-102870000D02*
X122301000Y-102870000D01*
X126801000Y-102870000D02*
X125551000Y-102870000D01*
X126801000Y-113150000D02*
X126801000Y-102870000D01*
X128270000Y-105390000D02*
X123952000Y-105390000D01*
X128270000Y-105390000D02*
X130220000Y-105390000D01*
X128270000Y-110510000D02*
X126320000Y-110510000D01*
X128270000Y-110510000D02*
X130220000Y-110510000D01*
X123551000Y-102870000D02*
G75*
G03*
X125551000Y-102870000I1000000J0D01*
G01*
X91500000Y-101220000D02*
X91500000Y-101980000D01*
X91500000Y-101980000D02*
X97500000Y-101980000D01*
X91500000Y-103760000D02*
X91500000Y-104520000D01*
X91500000Y-104520000D02*
X97500000Y-104520000D01*
X91500000Y-106300000D02*
X91500000Y-107060000D01*
X91500000Y-107060000D02*
X97500000Y-107060000D01*
X91500000Y-108840000D02*
X91500000Y-109600000D01*
X91500000Y-109600000D02*
X97500000Y-109600000D01*
X91500000Y-111380000D02*
X91500000Y-112140000D01*
X91500000Y-112140000D02*
X97500000Y-112140000D01*
X91500000Y-113920000D02*
X91500000Y-114680000D01*
X91500000Y-114680000D02*
X97500000Y-114680000D01*
X97500000Y-100270000D02*
X100160000Y-100270000D01*
X97500000Y-101220000D02*
X91500000Y-101220000D01*
X97500000Y-101280000D02*
X91500000Y-101280000D01*
X97500000Y-101400000D02*
X91500000Y-101400000D01*
X97500000Y-101520000D02*
X91500000Y-101520000D01*
X97500000Y-101640000D02*
X91500000Y-101640000D01*
X97500000Y-101760000D02*
X91500000Y-101760000D01*
X97500000Y-101880000D02*
X91500000Y-101880000D01*
X97500000Y-103760000D02*
X91500000Y-103760000D01*
X97500000Y-106300000D02*
X91500000Y-106300000D01*
X97500000Y-108840000D02*
X91500000Y-108840000D01*
X97500000Y-111380000D02*
X91500000Y-111380000D01*
X97500000Y-113920000D02*
X91500000Y-113920000D01*
X97500000Y-115630000D02*
X97500000Y-100270000D01*
X100160000Y-100270000D02*
X100160000Y-115630000D01*
X100160000Y-102870000D02*
X97500000Y-102870000D01*
X100160000Y-105410000D02*
X97500000Y-105410000D01*
X100160000Y-107950000D02*
X97500000Y-107950000D01*
X100160000Y-110490000D02*
X97500000Y-110490000D01*
X100160000Y-113030000D02*
X97500000Y-113030000D01*
X100160000Y-115630000D02*
X97500000Y-115630000D01*
X100490000Y-101220000D02*
X100160000Y-101220000D01*
X100490000Y-101980000D02*
X100160000Y-101980000D01*
X100557071Y-103760000D02*
X100160000Y-103760000D01*
X100557071Y-104520000D02*
X100160000Y-104520000D01*
X100557071Y-106300000D02*
X100160000Y-106300000D01*
X100557071Y-107060000D02*
X100160000Y-107060000D01*
X100557071Y-108840000D02*
X100160000Y-108840000D01*
X100557071Y-109600000D02*
X100160000Y-109600000D01*
X100557071Y-111380000D02*
X100160000Y-111380000D01*
X100557071Y-112140000D02*
X100160000Y-112140000D01*
X100557071Y-113920000D02*
X100160000Y-113920000D01*
X100557071Y-114680000D02*
X100160000Y-114680000D01*
X102870000Y-100330000D02*
X101600000Y-100330000D01*
X102870000Y-101600000D02*
X102870000Y-100330000D01*
X113710000Y-100640000D02*
X113710000Y-102560000D01*
X113710000Y-102560000D02*
X116570000Y-102560000D01*
X116570000Y-100640000D02*
X113710000Y-100640000D01*
X110262936Y-105945000D02*
X110717064Y-105945000D01*
X110262936Y-107415000D02*
X110717064Y-107415000D01*
X118845000Y-109996248D02*
X118845000Y-110518752D01*
X117375000Y-109996248D02*
X117375000Y-110518752D01*
X110717064Y-102335000D02*
X110262936Y-102335000D01*
X110717064Y-100865000D02*
X110262936Y-100865000D01*
%LPC*%
D12*
X120650000Y-104140000D03*
D13*
X124676800Y-106045000D03*
D14*
X125645000Y-106045000D03*
D15*
X120650000Y-106680000D03*
D13*
X124676800Y-107315000D03*
D14*
X125645000Y-107315000D03*
D15*
X120650000Y-109220000D03*
D13*
X124676800Y-108585000D03*
D14*
X125645000Y-108585000D03*
D15*
X120650000Y-111760000D03*
D13*
X124676800Y-109855000D03*
D14*
X125645000Y-109855000D03*
D15*
X128270000Y-111760000D03*
D14*
X130895000Y-109855000D03*
D13*
X131876800Y-109855000D03*
D15*
X128270000Y-109220000D03*
D14*
X130895000Y-108585000D03*
D13*
X131876800Y-108585000D03*
D15*
X128270000Y-106680000D03*
D14*
X130895000Y-107315000D03*
D13*
X131876800Y-107315000D03*
D15*
X128270000Y-104140000D03*
D14*
X130895000Y-106045000D03*
D13*
X131876800Y-106045000D03*
D16*
X101600000Y-101600000D03*
D17*
X101600000Y-104140000D03*
X101600000Y-106680000D03*
X101600000Y-109220000D03*
X101600000Y-111760000D03*
X101600000Y-114300000D03*
D18*
X114545000Y-101600000D03*
X116595000Y-101600000D03*
D19*
X109490000Y-106680000D03*
X111490000Y-106680000D03*
D20*
X118110000Y-109220000D03*
X118110000Y-111295000D03*
D21*
X111490000Y-101600000D03*
X109490000Y-101600000D03*
M02*
